<svg xml:space="preserve" viewBox="0 0 358.667 83.334" height="83.334px" width="358.667px" y="0px" x="0px" xmlns:xlink="http://www.w3.org/1999/xlink" xmlns="http://www.w3.org/2000/svg" id="Ebene_1" version="1.1">
<g>
	<g id="Typo">
		<path d="M101.338,24.988v1.36c0,3.841,2.08,5.722,5.641,5.722c3.441,0,5.281-2.041,5.281-5.682V6.145h4.241v19.363
			c0,7.442-4.041,9.923-9.442,9.923c-9.521,0-9.722-6.722-9.722-10.442H101.338z" fill="#5F666F"></path>
		<path d="M146.908,26.389h-14.003l-3.641,8.322h-4.562l12.924-28.566h4.841l12.923,28.566h-4.842L146.908,26.389z
			 M139.867,10.065l-5.361,12.643h10.842L139.867,10.065z" fill="#5F666F"></path>
		<path d="M169.363,11.985h-0.08v22.726h-4.241V6.145h4.921l18.365,22.725h0.078V6.145h4.242v28.566h-4.922
			L169.363,11.985z" fill="#5F666F"></path>
		<path d="M207.808,25.309c0.08,5.121,4.881,6.441,9.201,6.441c4.521,0,7.723-1.721,7.723-4.842
			c0-2.6-2.041-3.68-5.322-4.24l-6.48-1.08c-3.4-0.561-8.482-1.921-8.482-7.482c0-5.201,4.121-8.682,11.443-8.682
			c5.721,0,11.762,2.081,12.162,8.963h-4.24c-0.361-2.241-1.641-5.281-8.482-5.281c-3.121,0-6.641,1.32-6.641,4.681
			c0,1.761,1.16,3.161,4.68,3.761l7.002,1.2c2.24,0.399,8.602,1.48,8.602,7.321c0,7.281-6.521,9.362-12.281,9.362
			c-6.441,0-13.123-2.241-13.123-10.122H207.808z" fill="#5F666F"></path>
		<path d="M241.984,25.309c0.08,5.121,4.881,6.441,9.203,6.441c4.521,0,7.723-1.721,7.723-4.842
			c0-2.6-2.041-3.68-5.322-4.24l-6.482-1.08c-3.4-0.561-8.48-1.921-8.48-7.482c0-5.201,4.119-8.682,11.443-8.682
			c5.721,0,11.762,2.081,12.162,8.963h-4.24c-0.361-2.241-1.641-5.281-8.482-5.281c-3.123,0-6.643,1.32-6.643,4.681
			c0,1.761,1.16,3.161,4.682,3.761l7.002,1.2c2.24,0.399,8.602,1.48,8.602,7.321c0,7.281-6.521,9.362-12.281,9.362
			c-6.443,0-13.125-2.241-13.125-10.122H241.984z" fill="#5F666F"></path>
		<path d="M273.97,6.145h22.963v3.681H278.21v8.282h18.162v3.68H278.21v9.242h19.123v3.682H273.97V6.145z" fill="#5F666F"></path>
		<path d="M312.902,11.985h-0.08v22.726h-4.242V6.145h4.922l18.363,22.725h0.08V6.145h4.242v28.566h-4.922
			L312.902,11.985z" fill="#5F666F"></path>
		<path d="M107.729,59.719c-0.641-3.961-3.762-7.322-9.762-7.322c-6.763,0-11.043,3.881-11.043,11.683
			c0,5.401,2.92,10.962,10.803,10.962c5,0,8.801-2.4,10.002-7.961h4.24c-0.68,6.32-6.121,11.643-14.283,11.643
			c-7.201,0-15.003-3.961-15.003-15.084c0-8.322,5.201-14.923,14.964-14.923c5.721,0,13.603,2.44,14.322,11.003H107.729z" fill="#5F666F"></path>
		<path d="M132.595,48.716c11.482,0,15.884,7.682,15.884,15.003c0,7.322-4.401,15.004-15.884,15.004
			s-15.884-7.682-15.884-15.004C116.711,56.397,121.112,48.716,132.595,48.716z M132.595,52.396
			c-6.521,0-11.643,3.761-11.643,11.322s5.121,11.322,11.643,11.322s11.643-3.761,11.643-11.322S139.116,52.396,132.595,52.396z" fill="#5F666F"></path>
		<path d="M156.77,68.6c0.08,5.121,4.881,6.441,9.202,6.441c4.521,0,7.722-1.721,7.722-4.841
			c0-2.601-2.041-3.681-5.321-4.241l-6.481-1.08c-3.4-0.561-8.481-1.92-8.481-7.481c0-5.201,4.12-8.682,11.442-8.682
			c5.721,0,11.762,2.08,12.162,8.962h-4.24c-0.36-2.24-1.641-5.281-8.482-5.281c-3.12,0-6.641,1.32-6.641,4.682
			c0,1.76,1.16,3.16,4.681,3.76l7.001,1.201c2.24,0.399,8.602,1.48,8.602,7.321c0,7.281-6.521,9.362-12.282,9.362
			c-6.44,0-13.122-2.241-13.122-10.123H156.77z" fill="#5F666F"></path>
		<path d="M212.558,49.436h5.881v28.566h-4.24V54.316h-0.08l-11.123,23.686h-3.76l-11.084-23.205h-0.078v23.205
			h-4.242V49.436h5.961l11.322,23.686L212.558,49.436z" fill="#5F666F"></path>
		<path d="M226.298,49.436h22.967v3.682h-18.725v8.281h18.164v3.681h-18.164v9.242h19.125v3.681h-23.367V49.436z" fill="#5F666F"></path>
		<path d="M264.341,53.117h-10.803v-3.682h25.846v3.682h-10.803v24.885h-4.24V53.117z" fill="#5F666F"></path>
		<path d="M284.283,49.436h4.24v28.566h-4.24V49.436z" fill="#5F666F"></path>
		<path d="M320.054,59.719c-0.641-3.961-3.762-7.322-9.764-7.322c-6.762,0-11.041,3.881-11.041,11.683
			c0,5.401,2.92,10.962,10.801,10.962c5.002,0,8.803-2.4,10.004-7.961h4.24c-0.68,6.32-6.121,11.643-14.283,11.643
			c-7.201,0-15.002-3.961-15.002-15.084c0-8.322,5.199-14.923,14.961-14.923c5.723,0,13.604,2.44,14.324,11.003H320.054z" fill="#5F666F"></path>
		<path d="M332.876,68.6c0.08,5.121,4.881,6.441,9.203,6.441c4.52,0,7.721-1.721,7.721-4.841
			c0-2.601-2.039-3.681-5.32-4.241l-6.482-1.08c-3.4-0.561-8.48-1.92-8.48-7.481c0-5.201,4.121-8.682,11.441-8.682
			c5.721,0,11.764,2.08,12.162,8.962h-4.24c-0.359-2.24-1.641-5.281-8.482-5.281c-3.119,0-6.641,1.32-6.641,4.682
			c0,1.76,1.16,3.16,4.682,3.76l7,1.201c2.242,0.399,8.604,1.48,8.604,7.321c0,7.281-6.521,9.362-12.283,9.362
			c-6.441,0-13.123-2.241-13.123-10.123H332.876z" fill="#5F666F"></path>
	</g>
	<g>
		<path d="M23.655,49.476c-0.496,0.547-0.447,1.406,0.104,1.888c0.541,0.493,1.384,0.454,1.877-0.101
			c0.495-0.55,0.456-1.386-0.096-1.887C24.993,48.89,24.146,48.936,23.655,49.476z" fill="#5F666F"></path>
		<path d="M22.438,37.911c0.734-0.094,1.242-0.786,1.137-1.504c-0.105-0.731-0.774-1.234-1.506-1.131
			c-0.728,0.091-1.236,0.772-1.139,1.493C21.037,37.511,21.717,38.021,22.438,37.911z" fill="#5F666F"></path>
		<path d="M60.324,49.178c-0.715-0.163-1.426,0.291-1.569,1.022c-0.168,0.713,0.3,1.424,1.018,1.563
			c0.725,0.166,1.437-0.288,1.581-1.021C61.508,50.018,61.054,49.314,60.324,49.178z" fill="#5F666F"></path>
		<path d="M28.574,25.635c0.623,0.385,1.449,0.197,1.842-0.425c0.391-0.621,0.205-1.443-0.42-1.843
			c-0.634-0.386-1.459-0.198-1.845,0.427C27.761,24.428,27.947,25.248,28.574,25.635z" fill="#5F666F"></path>
		<path d="M55.064,25.813c0.679,0.277,1.455-0.052,1.736-0.735c0.271-0.684-0.054-1.461-0.74-1.738
			c-0.683-0.267-1.466,0.053-1.739,0.749C54.047,24.761,54.385,25.546,55.064,25.813z" fill="#5F666F"></path>
		<path d="M62.934,35.244c-0.717-0.159-1.426,0.289-1.574,1.025c-0.16,0.711,0.309,1.424,1.022,1.563
			c0.725,0.16,1.433-0.292,1.584-1.024C64.112,36.089,63.656,35.386,62.934,35.244z" fill="#5F666F"></path>
		<path d="M42.216,9.909H9.181l6.513,41.76c3.408,16.813,20.956,22.178,26.522,22.178
			c5.551,0,23.061-5.338,26.499-22.108l6.523-41.829H42.216z M52.03,23.533c0.323,0.254,0.384,0.432,1.234,0.097l-0.171-0.564
			c-0.215-0.241-0.385-0.144-1.437-0.727c-0.101-0.68,0.573-0.521,0.977-2.34c1.822,0.368,1.943-0.294,2.523,0.046
			c0.433,0.277,0.322,0.562,0.08,1.622c0.122,0.294,0.353,0.412,1.003,0.096c0.155-0.271,0.013-0.422,0.237-1.594
			c0.624-0.299,0.683,0.383,2.535,0.204c0.217,1.852,0.882,1.769,0.718,2.434c-0.104,0.489-0.424,0.461-1.508,0.561
			c-0.244,0.208-0.246,0.391,0.25,0.916c0.303,0.066,0.402-0.105,1.587-0.261c0.472,0.492-0.152,0.764,0.593,2.465
			c-1.7,0.789-1.403,1.39-2.091,1.436c-0.495,0.054-0.583-0.256-1.008-1.252c-0.268-0.158-0.55-0.076-0.98,0.62
			c0.018,0.308,0.213,0.347,0.68,1.451c-0.341,0.594-0.767,0.068-2.199,1.253c-1.216-1.425-1.731-0.978-1.647-2.392
			c0.339-0.23,0.538-0.232-0.103-1.156c-0.288,0.127-0.262,0.315-1.171,1.104c-0.665-0.146-0.29-0.712-1.864-1.72
			C51.241,24.232,50.663,23.898,52.03,23.533z M25.605,24.022c0.353,0.202,0.447,0.37,1.021-0.678
			c-0.243-0.196-0.405-0.084-1.524-0.515c-0.181-0.661,0.493-0.587,0.64-2.457c1.862,0.115,1.895-0.566,2.519-0.29
			c0.457,0.197,0.387,0.509,0.295,1.584c0.162,0.276,0.346,0.314,0.945-0.088c0.115-0.292-0.041-0.398,0.019-1.596
			c0.573-0.388,0.72,0.272,2.533-0.161c0.469,1.805,1.123,1.637,1.058,2.3c-0.049,0.517-0.363,0.539-1.41,0.775
			c-0.222,0.247-0.177,0.542,0.429,1.087c0.309,0.017,0.39-0.15,1.554-0.435c0.531,0.451-0.068,0.778,0.836,2.399
			c-1.598,0.948-1.24,1.529-2.625,1.196c-0.169-0.368-0.145-0.554-1.157-0.092c0.064,0.298,0.259,0.311,0.891,1.336
			c-0.268,0.635-0.764,0.177-2.028,1.536c-1.39-1.236-1.838-0.711-1.956-2.132c0.305-0.266,0.496-0.302,0.305-1.199l-0.582,0.076
			c-0.266,0.175-0.214,0.356-0.966,1.286c-0.688-0.029-0.415-0.646-2.13-1.351C24.948,24.858,24.31,24.62,25.605,24.022z
			 M18.539,39.199c0.011-0.508,0.328-0.551,1.356-0.871c0.197-0.259,0.178-0.523-0.412-0.922c-0.32,0.008-0.364,0.196-1.505,0.591
			c-0.563-0.377-0.01-0.768-1.088-2.291c1.5-1.112,1.088-1.646,2.497-1.47c0.201,0.357,0.195,0.537,1.157-0.021
			c-0.103-0.292-0.288-0.284-1.022-1.251c0.192-0.655,0.744-0.234,1.85-1.737c1.515,1.076,1.896,0.52,2.295,1.085
			c0.282,0.422,0.061,0.634-0.593,1.512c-0.013,0.315,0.217,0.512,1.031,0.535c0.256-0.187,0.19-0.361,0.91-1.321
			c0.681,0.011,0.44,0.637,2.188,1.298c-0.622,1.741,0.018,1.962-1.245,2.609c-0.376-0.171-0.465-0.344-0.959,0.669
			c0.258,0.188,0.407,0.075,1.544,0.448c0.209,0.656-0.473,0.63-0.556,2.484c-1.859-0.048-1.859,0.63-2.866-0.374
			c0.063-0.408,0.181-0.556-0.532-1.107l-0.412,0.422c-0.091,0.304,0.07,0.411,0.088,1.61c-0.538,0.415-0.736-0.239-2.509,0.329
			C19.163,39.657,18.523,39.881,18.539,39.199z M27.609,52.558c-0.224-0.343-0.216-0.541-1.128-0.506l-0.036,0.596
			c0.122,0.28,0.321,0.266,1.109,1.17c-0.157,0.658-0.719,0.285-1.717,1.858c-1.601-0.975-1.943-0.389-2.313-1.757
			c0.265-0.321,0.442-0.39-0.484-1.137c-0.234,0.218-0.157,0.383-0.771,1.413c-0.675,0.064-0.496-0.585-2.301-1.047
			c0.426-1.826-0.232-1.977,0.956-2.752c0.388,0.147,0.51,0.313,0.885-0.759c-0.27-0.148-0.409-0.022-1.588-0.275
			c-0.266-0.633,0.406-0.669,0.305-2.534c1.842-0.139,1.787-0.824,2.446-0.646c0.487,0.144,0.449,0.452,0.512,1.537
			c0.195,0.256,0.503,0.267,1.141-0.245c0.076-0.298-0.089-0.396-0.151-1.601c0.522-0.445,0.748,0.208,2.503-0.414
			c0.651,1.741,1.283,1.492,0.735,2.806c-0.405,0.102-0.587,0.032-0.312,1.116c0.312-0.014,0.359-0.196,1.476-0.638
			c0.579,0.36,0.036,0.771,1.164,2.254C28.594,52.162,29.018,52.683,27.609,52.558z M38.171,59.977
			c0.276,0.134,0.407-0.013,1.599,0.182c0.321,0.603-0.359,0.683-0.115,2.531c-1.846,0.277-1.734,0.947-2.408,0.8
			c-0.49-0.086-0.485-0.404-0.618-1.486c-0.219-0.226-0.469-0.247-0.976,0.266c-0.043,0.298,0.13,0.384,0.32,1.578
			c-0.48,0.492-0.761-0.134-2.445,0.667c-0.833-1.667-1.438-1.355-1.021-2.712c0.389-0.13,0.576-0.09,0.188-1.148
			c-0.313,0.04-0.33,0.249-1.402,0.788c-0.609-0.291-0.115-0.748-1.398-2.106c1.329-1.315,0.847-1.783,2.266-1.813
			c0.248,0.331,0.274,0.524,1.292-0.35c-0.126-0.271-0.32-0.243-1.143-1.127c0.123-0.658,0.704-0.315,1.654-1.914
			c1.621,0.911,1.946,0.312,2.357,1.679c-0.238,0.335-0.42,0.408,0.489,1.06c0.227-0.229,0.14-0.392,0.724-1.451
			c0.679-0.082,0.526,0.568,2.341,0.982c-0.366,1.818,0.294,1.95-0.869,2.755c-0.386-0.12-0.504-0.265-1.189,0.332L38.171,59.977z
			 M42.987,24.253c-0.433-0.241-0.333-0.538-0.131-1.592c-0.127-0.307-0.307-0.365-0.945-0.022
			c-0.144,0.283,0.003,0.417-0.181,1.594c-0.61,0.325-0.694-0.346-2.534-0.108c-0.28-1.835-0.95-1.739-0.135-2.896
			c0.413-0.012,0.577,0.085,1.01-0.72L39.57,20.18c-0.313-0.035-0.391,0.138-1.563,0.377c-0.506-0.46,0.096-0.758-0.755-2.423
			c1.63-0.894,1.296-1.482,1.979-1.584c0.497-0.064,0.593,0.217,1.085,1.193c0.285,0.145,0.532,0.079,0.841-0.565
			c-0.069-0.319-0.255-0.333-0.85-1.384c0.279-0.62,0.763-0.142,2.068-1.469c1.36,1.27,1.813,0.785,1.891,2.203
			c-0.323,0.256-0.513,0.277,0.209,1.142c0.276-0.16,0.24-0.342,1.055-1.225c0.68,0.073,0.373,0.676,2.037,1.509
			c-0.796,1.691-0.183,1.974-0.672,2.446c-0.364,0.347-0.612,0.175-1.577-0.317c-0.32,0.046-0.478,0.295-0.361,1.112
			c0.218,0.212,0.396,0.118,1.468,0.665c0.106,0.671-0.56,0.539-0.895,2.377C43.686,23.925,43.583,24.61,42.987,24.253z
			 M52.612,61.136c-0.277-0.308-0.306-0.499-1.206,0.287c0.166,0.264,0.354,0.223,1.261,1.003c-0.052,0.678-0.666,0.395-1.433,2.093
			c-1.717-0.747-1.975-0.113-2.533-1.429c0.211-0.353,0.389-0.443-0.599-1.002c-0.193,0.252-0.089,0.416-0.557,1.508
			c-0.672,0.167-0.58-0.506-2.436-0.726c0.179-1.846-0.496-1.903-0.201-2.518c0.215-0.442,0.508-0.382,1.589-0.255
			c0.285-0.146,0.352-0.433-0.037-1.156c-0.286-0.13-0.414,0.016-1.608-0.124c-0.334-0.599,0.331-0.703,0.026-2.538
			c1.833-0.347,1.705-1.005,2.378-0.893c0.499,0.079,0.5,0.398,0.674,1.465c0.223,0.228,0.415,0.235,0.891-0.307
			c0.032-0.317-0.141-0.39-0.372-1.573c0.463-0.502,0.77,0.101,2.421-0.753c0.896,1.633,1.48,1.304,1.585,1.968
			c0.068,0.496-0.222,0.598-1.168,1.726l0.575,0.14c0.309-0.076,0.316-0.264,1.345-0.893c0.631,0.273,0.17,0.763,1.536,2.011
			C53.51,60.563,54.03,61.02,52.612,61.136z M62.528,54.274c-0.508-0.026-0.541-0.339-0.825-1.395
			c-0.248-0.197-0.426-0.174-0.861,0.4c-0.004,0.33,0.186,0.387,0.54,1.524c-0.412,0.551-0.775-0.016-2.329,1.005
			c-1.054-1.524-1.61-1.13-1.784-1.804c-0.124-0.477,0.151-0.613,1.065-1.21c0.117-0.299-0.021-0.55-0.784-0.867
			c-0.297,0.084-0.297,0.286-1.31,0.942c-0.644-0.241-0.192-0.744-1.607-1.963c1.185-1.445,0.649-1.866,2.065-2.036
			c0.28,0.307,0.317,0.495,1.122-0.299c-0.177-0.268-0.36-0.202-1.292-0.952c0.026-0.678,0.647-0.435,1.363-2.146
			c1.734,0.676,1.979,0.051,2.581,1.346c-0.202,0.349-0.371,0.455,0.114,1.221l0.529-0.262c0.186-0.258,0.074-0.402,0.455-1.546
			c0.657-0.214,0.622,0.476,2.476,0.556c-0.044,1.866,0.64,1.873,0.397,2.514c-0.191,0.459-0.497,0.395-1.588,0.339
			c-0.27,0.171-0.331,0.435,0.085,1.009c0.3,0.104,0.411-0.059,1.609-0.04c0.398,0.556-0.26,0.729,0.231,2.526
			C63.006,53.671,63.201,54.317,62.528,54.274z M66.025,37.94c-0.321-0.265-0.371-0.445-1.087,0.422
			c0.193,0.24,0.376,0.169,1.386,0.812c0.038,0.685-0.608,0.489-1.14,2.267c-1.793-0.493-1.97,0.168-2.523-0.229
			c-0.405-0.302-0.276-0.578,0.031-1.628c-0.095-0.289-0.363-0.396-1.145-0.155c-0.18,0.262-0.056,0.416-0.405,1.568
			c-0.648,0.221-0.628-0.46-2.497-0.483c-0.014-1.834-0.693-1.832-0.461-2.481c0.159-0.473,0.473-0.419,1.559-0.398
			c0.259-0.194,0.293-0.378-0.154-0.949c-0.301-0.084-0.405,0.077-1.601,0.101c-0.425-0.537,0.225-0.74-0.329-2.524
			c1.761-0.587,1.538-1.213,2.82-0.639c0.092,0.416,0.021,0.603,0.885,0.88l0.243-0.545c-0.018-0.312-0.208-0.348-0.643-1.476
			c0.368-0.578,0.77-0.023,2.25-1.166c1.163,1.46,1.688,1.028,1.564,2.438c-0.352,0.207-0.545,0.217,0.07,1.23
			c0.298-0.111,0.279-0.295,1.203-1.067c0.658,0.169,0.271,0.722,1.803,1.784C66.833,37.245,67.407,37.62,66.025,37.94z" fill="#5F666F"></path>
		<path d="M48.494,58.37c-0.581,0.458-0.685,1.304-0.232,1.88c0.454,0.569,1.294,0.689,1.872,0.228
			c0.586-0.46,0.685-1.304,0.234-1.864C49.911,58.02,49.071,57.928,48.494,58.37z" fill="#5F666F"></path>
		<path d="M42.026,18.488c-0.705,0.229-1.084,0.988-0.869,1.677c0.241,0.714,0.991,1.091,1.689,0.865
			c0.697-0.232,1.086-0.985,0.854-1.69C43.475,18.643,42.724,18.265,42.026,18.488z" fill="#5F666F"></path>
		<path d="M35.386,58.06c-0.745-0.03-1.358,0.538-1.387,1.289c-0.028,0.726,0.551,1.345,1.282,1.369
			c0.738,0.026,1.362-0.546,1.383-1.276C36.688,58.697,36.114,58.089,35.386,58.06z" fill="#5F666F"></path>
		<path d="M4.11,5.375l7.366,47.193c3.929,19.723,24.021,25.85,30.895,25.85c6.869,0,26.95-6.127,30.89-25.877
			l7.366-47.166H4.11z M71.949,52.308c-3.771,18.905-23.001,24.777-29.578,24.777c-6.582,0-25.822-5.872-29.583-24.75L5.667,6.708
			H79.07L71.949,52.308z" fill="#5F666F"></path>
	</g>
</g>
</svg>
